<svg width="193" height="46" viewBox="0 0 193 46" fill="none" xmlns="http://www.w3.org/2000/svg">
<path fill-rule="evenodd" clip-rule="evenodd" d="M64.082 6.91024C64.082 7.29774 64.3289 7.48214 64.7416 7.40314C65.5363 7.25034 67.3509 5.87164 66.5322 5.70154C66.1907 5.63044 64.082 6.54854 64.082 6.91024ZM164.756 11.821C163.786 14.3262 163.323 16.0052 163.54 16.2223C163.758 16.4394 164.154 16.1297 164.58 15.4103C165.155 14.4387 165.501 14.2476 166.686 14.2476C167.782 14.2476 168.244 14.4609 168.721 15.1883C169.061 15.7057 169.573 16.129 169.861 16.129C170.527 16.129 170.522 16.0857 169.665 14.1637C169.27 13.2787 168.647 11.7924 168.279 10.8611C167.912 9.92984 167.322 8.85334 166.968 8.46914C166.352 7.80124 166.255 7.94794 164.756 11.821ZM8.93939 8.48904C8.34192 8.64404 8.27859 9.07304 8.37396 12.3022L8.48139 15.9408L11.2143 16.0515C13.4368 16.1414 13.9472 16.0571 13.9472 15.5999C13.9472 15.1792 13.4006 15.0092 11.7797 14.9249C9.64769 14.8139 9.61225 14.7936 9.61225 13.6832C9.61225 12.5867 9.66917 12.5509 11.5913 12.4407C12.6799 12.3779 13.5703 12.1664 13.5703 11.9703C13.5703 11.6388 12.9355 11.5301 10.5546 11.4552C9.87348 11.4338 9.61225 11.217 9.61225 10.6729C9.61225 10.0303 9.90138 9.90384 11.5913 9.80674C13.2623 9.71084 13.5703 9.57874 13.5703 8.96014C13.5703 8.32124 13.3162 8.23284 11.5913 8.27084C10.5026 8.29494 9.30956 8.39314 8.93939 8.48904ZM16.1185 8.69754C15.7822 8.95644 15.4754 9.42184 15.4366 9.73224C15.2443 11.2652 15.5413 11.6622 17.6225 12.6522C18.8389 13.2305 19.79 13.9308 19.79 14.2476C19.79 15.1548 17.7601 15.1736 16.5463 14.2777C15.3058 13.3622 15.0781 13.3182 15.0781 13.994C15.0781 14.9456 16.7755 16.129 18.1412 16.129C19.5039 16.129 21.1093 15.0291 21.1093 14.0956C21.1093 13.1218 19.6309 11.7416 18.096 11.2825C16.967 10.945 16.5727 10.6421 16.6605 10.1804C16.8249 9.31954 18.3093 9.16414 19.4217 9.89144C20.4787 10.583 20.7324 10.6248 20.7324 10.1085C20.7324 8.63504 17.4891 7.64314 16.1185 8.69754ZM23.8607 8.79274C23.4159 9.10394 22.8524 9.96144 22.6085 10.6985C21.32 14.596 24.8894 17.7131 27.7791 15.2146C28.5794 14.5223 28.7313 14.193 28.4034 13.86C28.0735 13.5248 27.7806 13.6087 27.1783 14.21C26.2291 15.1574 24.7895 15.2353 24.0767 14.3778C23.3873 13.5481 23.477 10.5943 24.2143 9.85834C24.8894 9.18404 26.8153 9.45234 27.5375 10.3207C27.7848 10.618 28.1357 10.8611 28.3174 10.8611C28.9273 10.8611 28.6567 10.0825 27.723 9.15094C26.6645 8.09394 25.0711 7.94644 23.8607 8.79274ZM31.4239 8.94964C30.4581 9.53774 30.2094 9.96824 30.0665 11.3002C29.7465 14.2878 31.053 16.129 33.493 16.129C35.1331 16.129 35.7709 15.7915 36.3899 14.5968C37.3345 12.7737 37.1065 10.5917 35.8395 9.32704C34.5383 8.02814 33.1353 7.90804 31.4239 8.94964ZM46.5816 10.2026C46.1013 11.2889 45.5909 12.7165 45.4473 13.375C45.0884 15.0174 44.6286 15.2534 42.1245 15.0803L39.957 14.9305V11.7393C39.957 8.99964 39.8707 8.56544 39.3467 8.67004C38.8386 8.77124 38.7285 9.40644 38.687 12.47L38.6376 16.1485L42.1501 16.0962C45.4827 16.0462 45.6799 15.9977 46.0044 15.1458C46.2864 14.4056 46.6121 14.2476 47.8549 14.2476C49.048 14.2476 49.4924 14.4444 49.9809 15.1883C50.6692 16.237 51.2656 16.4176 51.2656 15.5773C51.2656 14.4587 48.3751 8.22714 47.8564 8.22714C47.6355 8.22714 47.0618 9.11634 46.5816 10.2026ZM54.6581 8.79154C54.6581 9.16634 55.0336 9.35604 55.7747 9.35604H56.8916L56.9998 12.8365C57.1378 17.2646 57.7978 17.2672 58.0507 12.8403C58.1974 10.2767 58.3647 9.53284 58.8046 9.49334C59.1156 9.46554 59.5823 9.42334 59.8413 9.39924C60.1006 9.37554 60.3124 9.10204 60.3124 8.79154C60.3124 8.34004 59.747 8.22714 57.4853 8.22714C55.2236 8.22714 54.6581 8.34004 54.6581 8.79154ZM61.965 8.76974C61.8681 9.02144 61.8384 10.738 61.899 12.5841L62.0087 15.9408L64.7416 16.0515C67.0019 16.1429 67.4746 16.0616 67.4746 15.5811C67.4746 15.1221 67.0004 15.0001 65.2128 15.0001H62.9511V13.6354V12.2706L64.8359 12.4512C66.2581 12.5878 66.7206 12.5069 66.7206 12.1227C66.7206 11.7619 66.165 11.6136 64.811 11.6136C62.95 11.6136 62.904 11.5873 63.0205 10.5789C63.1351 9.58444 63.2165 9.54714 65.1186 9.62614C66.8379 9.69724 67.0976 9.61454 67.0976 8.99594C67.0976 8.36754 66.8047 8.28514 64.6191 8.29794C63.0325 8.30694 62.0777 8.47664 61.965 8.76974ZM70.0228 9.11024C68.2311 10.7678 68.3121 14.2254 70.1732 15.5265C71.9279 16.7532 74.6367 15.9017 74.6367 14.1238C74.6367 13.2753 74.167 13.331 73.5933 14.2476C73.0275 15.1522 71.1759 15.2605 70.4849 14.4293C70.2241 14.1155 70.0103 13.1872 70.0103 12.3662C70.0103 11.5451 70.2241 10.6169 70.4849 10.3031C71.0172 9.66264 72.9588 9.52944 73.3173 10.1085C73.6713 10.6801 74.6367 10.5578 74.6367 9.94184C74.6367 9.18144 73.1522 8.22714 71.9693 8.22714C71.4235 8.22714 70.5479 8.62454 70.0228 9.11024ZM76.7729 8.47814C76.6345 8.61584 76.5214 10.4062 76.5214 12.4565C76.5214 15.8057 76.5885 16.1707 77.1811 16.0526C77.7439 15.9401 77.8212 15.5702 77.7066 13.5323C77.5467 10.6857 77.8159 10.7335 79.7734 13.8995C81.8418 17.2446 82.3642 16.8966 82.3642 12.1728C82.3642 9.08354 82.2636 8.41534 81.7988 8.41534C81.3457 8.41534 81.2545 8.87704 81.34 10.7373C81.3984 12.0144 81.2955 13.1522 81.1112 13.2659C80.9265 13.3799 80.3027 12.5889 79.7244 11.5087C78.1834 8.62824 77.4137 7.83814 76.7729 8.47814ZM84.6908 8.50934C84.5984 8.66474 84.4024 10.3377 84.255 12.2273C84.0635 14.6886 84.1118 15.7399 84.4261 15.9337C84.6674 16.0827 84.9365 16.1324 85.0244 16.0447C85.3403 15.7294 85.485 8.22714 85.1755 8.22714C85.0014 8.22714 84.7831 8.35394 84.6908 8.50934ZM88.8666 8.63354C87.9122 9.18854 87.0761 10.9973 87.0761 12.5069C87.0761 14.3947 88.6261 16.129 90.3138 16.129C92.041 16.129 93.8402 14.368 92.7809 13.7144C92.6011 13.6034 92.1507 13.8476 91.7801 14.2566C90.3379 15.8471 88.207 14.6957 88.207 12.3263C88.207 10.8186 89.1 9.35524 90.019 9.35754C90.3699 9.35824 91.2083 9.69424 91.8823 10.1044C93.0961 10.843 93.1074 10.8434 93.1074 10.1127C93.1074 9.67654 92.6528 9.14074 91.9954 8.80134C90.7126 8.13914 89.8011 8.09024 88.8666 8.63354ZM95.8697 11.8823C95.0758 13.8927 94.3702 15.6707 94.3012 15.8332C93.9615 16.6324 95.4437 16.0007 95.8147 15.1883C96.1769 14.3943 96.5003 14.2476 97.8879 14.2476C99.2755 14.2476 99.5985 14.3943 99.9611 15.1883C100.197 15.7057 100.618 16.129 100.896 16.129C101.552 16.129 101.576 16.2554 100.288 12.9163C99.0953 9.82524 98.1966 8.22714 97.6515 8.22714C97.4649 8.22714 96.6632 9.87184 95.8697 11.8823ZM105.791 8.70424C105.24 9.10694 105.155 9.70704 105.248 12.5611L105.358 15.9408L106.635 16.0628C109.67 16.3521 111.201 15.0788 111.201 12.2665C111.201 10.735 111.016 10.2429 110.099 9.32704C108.892 8.12214 106.969 7.84414 105.791 8.70424ZM113.353 8.46194C113.206 8.60874 113.086 10.3937 113.086 12.429V16.129H115.725C117.819 16.129 118.363 16.0123 118.363 15.5646C118.363 15.1311 117.881 15.0001 116.29 15.0001H114.217V13.6832V12.3662H116.29C117.43 12.3662 118.363 12.2164 118.363 12.0332C118.363 11.8503 117.43 11.5839 116.29 11.4417C114.584 11.2291 114.217 11.0549 114.217 10.4577C114.217 9.82824 114.494 9.73224 116.318 9.73224C118.115 9.73224 118.4 9.63704 118.293 9.07384C118.192 8.54884 117.707 8.39314 115.894 8.30544C114.643 8.24484 113.5 8.31524 113.353 8.46194ZM123.958 9.29954C122.914 10.2308 122.752 10.6252 122.727 12.2988C122.686 15.0461 123.54 15.8054 127.098 16.1847C129.93 16.4868 130.465 16.3939 129.787 15.7169C129.544 15.475 129.463 14.371 129.579 12.9219C129.763 10.6376 129.718 10.4735 128.62 9.37704C127.115 7.87494 125.584 7.84934 123.958 9.29954ZM131.314 8.79644C131.194 9.10994 131.162 10.5367 131.242 11.9673C131.422 15.1382 132.125 16.129 134.195 16.129C136.305 16.129 136.986 15.1371 137.126 11.8627C137.237 9.28824 136.829 7.73044 136.207 8.35054C136.048 8.51014 135.826 10.0291 135.716 11.7261C135.517 14.7732 135.501 14.8135 134.455 14.9332C132.681 15.1363 132.311 14.4895 132.311 11.1914C132.311 8.41684 131.868 7.35454 131.314 8.79644ZM141.228 8.50934C140.945 8.96994 138.342 15.6244 138.342 15.8874C138.342 16.5323 139.403 16.0168 139.781 15.1883C140.415 13.7987 142.708 13.8517 143.854 15.2823C145.154 16.9056 145.364 15.9717 144.355 13.0548C143.007 9.15884 141.857 7.48704 141.228 8.50934ZM153.124 12.0174C153.2 14.7529 153.373 15.9265 153.716 16.0402C154.095 16.1655 154.177 15.3546 154.093 12.3387C154.017 9.60324 153.844 8.42964 153.501 8.31594C153.122 8.19064 153.04 9.00154 153.124 12.0174ZM156.907 8.47624C156.574 8.61024 156.436 9.76464 156.436 12.3974V16.129H157.968C159.608 16.129 160.865 15.6202 161.607 14.6566C162.308 13.7437 162.213 10.2857 161.466 9.53964C160.354 8.42994 158.244 7.93784 156.907 8.47624ZM171.675 8.72724C171.569 9.00234 171.532 10.738 171.592 12.5841L171.702 15.9408L173.501 16.056C175.072 16.1564 175.441 16.0296 176.422 15.0502C177.368 14.1061 177.545 13.6331 177.545 12.0524C177.545 10.4186 177.395 10.0494 176.385 9.20134C175.517 8.47254 174.803 8.22714 173.546 8.22714C172.497 8.22714 171.795 8.41494 171.675 8.72724ZM179.22 8.70994C179.111 8.99444 179.071 10.738 179.131 12.5841L179.241 15.9408L181.974 16.0515C184.234 16.1429 184.707 16.0616 184.707 15.5811C184.707 15.1277 184.252 15.0001 182.634 15.0001C180.582 15.0001 180.561 14.9889 180.561 13.8713C180.561 12.7677 180.602 12.7425 182.445 12.7425C183.791 12.7425 184.33 12.595 184.33 12.2266C184.33 11.8917 183.669 11.623 182.445 11.4609C180.927 11.2599 180.561 11.0714 180.561 10.4916C180.561 9.88844 180.881 9.75334 182.54 9.65774C183.997 9.57424 184.519 9.39514 184.519 8.97974C184.519 8.19144 179.517 7.93664 179.22 8.70994ZM146.635 11.1903C146.635 12.613 146.742 14.3138 146.874 14.9697L147.113 16.1621L149.388 16.0515C152.347 15.9077 152.762 15.0871 149.958 14.9268L147.954 14.812L147.891 12.178C147.856 10.7294 147.813 9.33264 147.796 9.07384C147.78 8.81524 147.511 8.60344 147.2 8.60344C146.752 8.60344 146.635 9.14194 146.635 11.1903ZM35.3393 10.209C35.9986 10.7237 35.9273 13.1609 35.2236 14.1637C34.4915 15.2075 32.7794 15.2699 31.8872 14.286C30.9052 13.2027 31.1973 10.4521 32.3553 9.87864C33.2649 9.42864 34.5175 9.56714 35.3393 10.209ZM127.787 10.1085C128.911 11.2302 128.74 14.2476 127.553 14.2476C127.262 14.2476 126.695 14.4519 126.295 14.7014C124.368 15.9028 122.964 11.2641 124.855 9.94184C125.983 9.15354 126.881 9.20434 127.787 10.1085ZM175.907 10.1567C176.602 10.7328 176.546 13.1402 175.812 14.1851C175.363 14.8256 174.913 15.0133 174.032 14.9271C172.899 14.8165 172.855 14.7477 172.886 13.1187C172.962 9.06024 172.897 9.23714 174.211 9.49934C174.865 9.62994 175.628 9.92564 175.907 10.1567ZM109.68 10.46C109.895 10.8603 110.07 11.7653 110.07 12.4712C110.07 14.0771 109.025 15.1017 107.559 14.9343C106.549 14.8188 106.483 14.6995 106.373 12.7872C106.31 11.6738 106.347 10.5307 106.456 10.2474C106.771 9.42904 109.213 9.59004 109.68 10.46ZM160.507 10.1838C161.174 10.8502 161.064 13.5082 160.335 14.3119C159.731 14.9787 157.593 15.2891 157.54 14.7179C157.525 14.5625 157.428 13.6169 157.324 12.616C157.219 11.6151 157.226 10.557 157.338 10.2643C157.59 9.60994 159.874 9.55204 160.507 10.1838ZM98.5683 11.4714C98.8819 12.2209 99.1386 12.8798 99.1386 12.9355C99.1386 12.9908 98.5449 13.1056 97.8193 13.1902C97.0937 13.2749 96.4999 13.2294 96.4999 13.089C96.4999 12.6601 97.6293 10.1085 97.8193 10.1085C97.9173 10.1085 98.2543 10.7219 98.5683 11.4714ZM167.727 12.6484C167.737 12.9073 167.504 13.1187 167.21 13.1187C166.916 13.1187 166.407 13.2215 166.079 13.3471C165.321 13.6373 165.324 13.0819 166.091 11.3194L166.7 9.92044L167.205 11.0492C167.483 11.6701 167.718 12.3899 167.727 12.6484ZM48.7396 11.8018L49.3687 13.1187H47.8447C47.0064 13.1187 46.4104 12.9739 46.5201 12.7967C46.6298 12.6194 46.8899 12.0268 47.0984 11.4797C47.6046 10.1507 47.9865 10.2255 48.7396 11.8018ZM142.717 11.8018C143.122 13.0954 143.111 13.1187 142.055 13.1187C140.896 13.1187 140.676 12.508 141.371 11.2125C141.931 10.168 142.248 10.3064 142.717 11.8018Z" fill="white"/>
<path fill-rule="evenodd" clip-rule="evenodd" d="M17.7603 20.3161C15.2076 20.7394 12.3066 22.2969 10.9017 23.9984C7.67082 27.9109 7.36813 36.255 10.291 40.829C11.5998 42.877 12.6847 43.782 15.2114 44.937C17.0694 45.786 17.936 45.944 20.7326 45.944C26.0688 45.944 29.0354 44.228 31.1659 39.908C31.7246 38.774 32.0043 37.783 31.8132 37.616C31.4863 37.329 26.4574 35.695 25.9022 35.695C25.7506 35.695 25.3541 36.376 25.0208 37.208C24.1614 39.352 22.9167 40.211 20.6685 40.211C17.0189 40.211 15.8322 38.45 15.8322 33.036C15.8322 28.922 16.386 27.5034 18.4415 26.3501C20.7745 25.0414 22.0957 25.2506 23.9952 27.2291C25.7763 29.085 26.258 29.2 28.6788 28.347C29.5767 28.031 30.6582 27.8195 31.0819 27.8771C33.1159 28.153 30.0573 23.2059 27.2516 21.6816C25.7491 20.8651 21.0349 19.7385 19.9787 19.9432C19.8751 19.9632 18.8769 20.131 17.7603 20.3161ZM48.0519 20.5916C47.9535 20.6894 47.8732 26.3321 47.8732 33.13V45.491L58.1452 45.391L68.4172 45.29L68.5288 42.751L68.64 40.211H62.0595H55.4787L55.2879 38.8C55.0663 37.161 55.1654 35.646 55.5326 35.053C55.7048 34.775 57.6605 34.656 61.4439 34.696L67.0975 34.755V32.179L67.0979 29.604L61.3493 29.734L55.6008 29.863L55.4877 27.6995L55.3746 25.5359H61.7553H68.136L68.0123 22.996L67.8891 20.4561L58.0597 20.4347C52.6538 20.4226 48.1499 20.4933 48.0519 20.5916ZM85.0597 20.7244C84.7476 20.9174 84.6262 24.3931 84.6262 33.142V45.29H91.7883C99.895 45.29 101.219 45.033 103.601 42.998C105.713 41.194 106.61 39.327 107.095 35.734C107.416 33.354 107.381 32.162 106.921 29.727C105.989 24.7953 103.865 22.1162 100.044 21.051C98.3816 20.5878 85.7261 20.312 85.0597 20.7244ZM123.417 20.7895C123.294 21.1097 123.254 25.3139 123.33 30.132C123.484 39.99 123.807 41.409 126.34 43.337C128.933 45.311 130.698 45.838 134.761 45.849C139.132 45.86 141.405 45.214 143.606 43.333C146.536 40.83 146.789 39.444 146.684 26.4766L146.635 20.4561L143.525 20.5253C141.815 20.5633 140.203 20.6059 139.944 20.6194C139.586 20.6382 139.466 22.2972 139.445 27.5113C139.41 36.32 139.153 38.184 137.815 39.332C136.382 40.563 133.683 40.55 132.122 39.305L130.991 38.402L130.803 29.489L130.614 20.5761L127.127 20.3921C124.215 20.2382 123.604 20.3037 123.417 20.7895ZM163.785 22.3206C163.662 23.3647 163.611 28.96 163.673 34.755L163.786 45.29L167.462 45.398L171.137 45.506L171.209 42.952C171.249 41.548 171.26 39.976 171.234 39.458C171.208 38.941 171.264 37.986 171.359 37.337L171.532 36.156L175.392 36.014C178.786 35.888 179.467 35.745 181.038 34.826C183.516 33.377 184.493 31.442 184.507 27.9542C184.517 25.6698 184.372 25.0712 183.482 23.7286C181.642 20.9539 180.615 20.6747 171.748 20.54L164.01 20.4222L163.785 22.3206ZM176.008 25.6356C177.828 26.5627 177.969 29.441 176.249 30.566C175.04 31.357 171.942 31.491 171.486 30.772C171.095 30.155 171.015 25.7831 171.388 25.4106C171.813 24.9861 175.042 25.1434 176.008 25.6356ZM96.8662 26.4709C97.4614 26.7783 98.3262 27.5591 98.7879 28.206C99.52 29.232 99.6255 29.85 99.6142 33.04C99.595 38.469 98.9617 39.399 94.8748 39.998C91.9982 40.42 91.9768 40.367 91.9768 32.89C91.9768 29.328 92.0898 26.3008 92.2282 26.1631C92.6907 25.701 95.7712 25.9057 96.8662 26.4709Z" fill="#DC3C43"/>
</svg>
